<svg width="800" height="800" viewBox="0 0 800 800" fill="none" xmlns="http://www.w3.org/2000/svg">
<path d="M691.523 110.95C678.507 97.9326 657.4 97.9326 644.383 110.95L401.237 354.097L158.092 110.95C145.074 97.9326 123.969 97.9326 110.951 110.95C97.9337 123.968 97.9337 145.073 110.951 158.091L354.097 401.237L110.952 644.38C97.9344 657.4 97.9344 678.503 110.952 691.523C123.969 704.54 145.075 704.54 158.092 691.523L401.237 448.377L644.383 691.523C657.4 704.54 678.507 704.54 691.523 691.523C704.54 678.503 704.54 657.4 691.523 644.383L448.377 401.237L691.523 158.091C704.54 145.073 704.54 123.968 691.523 110.95Z" fill="#6E6E7E"/>
</svg>
